<svg width="500" height="500" viewBox="0 0 500 500" fill="none" xmlns="http://www.w3.org/2000/svg">
<g clip-path="url(#clip0_140_2)">
<path d="M99.9997 0L2.39935e-05 -2.01474e-06L4.22924e-05 500L99.9999 500" stroke="#D0FF00" stroke-width="80"/>
<path d="M400 0L500 6.72754e-06L500 500L400 500" stroke="#D0FF00" stroke-width="80"/>
<path d="M497 340.117C431.492 429.633 342.643 479.922 250 479.922C157.357 479.922 68.5085 429.633 3 340.117L78.285 182.922C111.838 228.77 202.549 247.079 250 247.079C297.451 247.079 388.162 228.77 421.715 182.922L497 340.117Z" fill="#3C4650"/>
<ellipse cx="249.5" cy="230.922" rx="184.5" ry="137" fill="#4C5B6A"/>
<path fill-rule="evenodd" clip-rule="evenodd" d="M460.417 268.198C479.582 194.456 485.031 107.812 473.969 39L473.969 39.0001C407.979 40.7676 382.194 66.2873 329.026 127.969L409.746 183.943L413.345 175.82L460.417 268.198Z" fill="#4C5B6A"/>
<path fill-rule="evenodd" clip-rule="evenodd" d="M39.0462 268.277C19.8816 194.534 14.4323 107.891 25.4946 39.0784C25.4946 39.0784 25.4947 39.0784 25.4947 39.0784L25.4946 39.0784C91.4849 40.846 117.269 66.3657 170.438 128.047L89.7173 184.021L86.118 175.898L39.0462 268.277Z" fill="#4C5B6A"/>
<path fill-rule="evenodd" clip-rule="evenodd" d="M39.0462 268.277C19.8816 194.534 14.4324 107.891 25.4947 39.0784L27.2967 43.1373C82.113 58.6315 104.796 85.4123 145.084 132.978C150.673 139.577 156.601 146.576 163 154L91.5001 192L85.1049 177.887L39.0462 268.277Z" fill="#3C4650"/>
<path fill-rule="evenodd" clip-rule="evenodd" d="M460.5 269C479.665 195.257 485.062 107.812 474 39L473.067 41.1183C419.086 55.937 397.051 82.3228 359.495 127.292C352.615 135.531 345.214 144.393 337 153.922L408.5 191.922L414.886 177.829L460.5 269Z" fill="#3C4650"/>
<ellipse cx="249.5" cy="240" rx="192.5" ry="135" fill="#3C4650"/>
<path d="M464.542 53.1406C471.612 115.596 466.739 184.202 449.693 249.796L409.638 177.23L464.542 53.1406Z" fill="#E96BDE"/>
<path d="M34.9225 53.2192C27.8521 115.674 32.7248 184.281 49.7716 249.875L89.8257 177.309L34.9225 53.2192Z" fill="#E96BDE"/>
<path d="M429.088 279.403C434.45 299.931 431.438 321.749 420.714 340.057C409.99 358.365 392.432 371.662 371.904 377.024C351.375 382.387 329.557 379.375 311.25 368.65C292.942 357.926 279.645 340.369 274.282 319.84L351.685 299.622L429.088 279.403Z" fill="#171C21"/>
<mask id="path-13-inside-1_140_2" fill="white">
<path d="M429.117 279.595C434.429 300.137 431.364 321.947 420.595 340.229C409.827 358.51 392.237 371.765 371.695 377.078C351.154 382.39 329.343 379.325 311.062 368.556C292.781 357.787 279.526 340.198 274.213 319.656L320.684 307.638C322.809 315.855 328.111 322.89 335.424 327.198C342.736 331.505 351.461 332.731 359.677 330.606C367.894 328.482 374.93 323.18 379.237 315.867C383.545 308.554 384.771 299.83 382.646 291.614L429.117 279.595Z"/>
</mask>
<path d="M429.117 279.595C434.429 300.137 431.364 321.947 420.595 340.229C409.827 358.51 392.237 371.765 371.695 377.078C351.154 382.39 329.343 379.325 311.062 368.556C292.781 357.787 279.526 340.198 274.213 319.656L320.684 307.638C322.809 315.855 328.111 322.89 335.424 327.198C342.736 331.505 351.461 332.731 359.677 330.606C367.894 328.482 374.93 323.18 379.237 315.867C383.545 308.554 384.771 299.83 382.646 291.614L429.117 279.595Z" fill="#D0FF00" stroke="#171C21" stroke-width="24" mask="url(#path-13-inside-1_140_2)"/>
<path d="M71.2185 279.662C65.8562 300.191 68.8685 322.009 79.5926 340.316C90.3167 358.624 107.874 371.921 128.403 377.284C148.931 382.646 170.749 379.634 189.057 368.91C207.364 358.186 220.662 340.628 226.024 320.099L148.621 299.881L71.2185 279.662Z" fill="#171C21"/>
<mask id="path-15-inside-2_140_2" fill="white">
<path d="M71.1898 279.855C65.8774 300.396 68.9426 322.207 79.7112 340.488C90.4798 358.77 108.07 372.024 128.611 377.337C149.153 382.649 170.963 379.584 189.245 368.815C207.526 358.047 220.781 340.457 226.093 319.915L179.622 307.897C177.497 316.114 172.195 323.15 164.883 327.457C157.57 331.765 148.846 332.991 140.629 330.866C132.413 328.741 125.377 323.439 121.069 316.126C116.762 308.814 115.536 300.089 117.661 291.873L71.1898 279.855Z"/>
</mask>
<path d="M71.1898 279.855C65.8774 300.396 68.9426 322.207 79.7112 340.488C90.4798 358.77 108.07 372.024 128.611 377.337C149.153 382.649 170.963 379.584 189.245 368.815C207.526 358.047 220.781 340.457 226.093 319.915L179.622 307.897C177.497 316.114 172.195 323.15 164.883 327.457C157.57 331.765 148.846 332.991 140.629 330.866C132.413 328.741 125.377 323.439 121.069 316.126C116.762 308.814 115.536 300.089 117.661 291.873L71.1898 279.855Z" fill="#D0FF00" stroke="#171C21" stroke-width="24" mask="url(#path-15-inside-2_140_2)"/>
<rect x="244" y="394" width="12" height="49" rx="6" fill="#171C21"/>
<path d="M245.853 408.873C248.32 410.687 251.68 410.687 254.147 408.873L278.71 390.811C284.157 386.806 281.324 378.172 274.563 378.172H225.437C218.676 378.172 215.843 386.806 221.29 390.811L245.853 408.873Z" fill="#E96BDE"/>
</g>
<defs>
<clipPath id="clip0_140_2">
<rect width="500" height="500" fill="white"/>
</clipPath>
</defs>
</svg>
